# xmcd
#
# Track frame offsets: 
#        187
#        17185
#        35867
#        49850
#        68900
#        87465
#        106347
#        122052
#        136350
#
# Disc length: 2071 seconds
#
# Revision: 4
# Processed by: cddbd v1.5.1PL0 Copyright (c) Steve Scherf et al.
# Submitted via: ExactAudioCopy v0.95a5
#
DISCID=81081509
DTITLE=K.T. Oslin - 80's Ladies
DYEAR=1987
DGENRE=Country
TTITLE0=Wall Of Tears
TTITLE1=I'll Always Come Back
TTITLE2=Younger Men
TTITLE3=80's Ladies
TTITLE4=Do Ya'
TTITLE5=Two Hearts
TTITLE6=Dr., Dr.
TTITLE7=Lonely But Only For You
TTITLE8=Old Pictures
EXTD=
EXTT0=
EXTT1=
EXTT2=
EXTT3=
EXTT4=
EXTT5=
EXTT6=
EXTT7=
EXTT8=
PLAYORDER=
